<svg version="1.2" xmlns="http://www.w3.org/2000/svg" viewBox="0 0 109 122" width="109" height="122"><style>.a{opacity:1;fill:#39c3e5}</style><path class="a" d="m57.5 2.1c-1.7 1.2-10.1 12.6-19 25.8-8.7 13-20 30.6-25.1 39.1-5.1 8.5-10.3 18.1-11.6 21.2-2.1 5.1-2.1 5.9-0.8 7.3 0.8 0.9 2.5 1.6 3.7 1.5 1.3 0 3.1-0.8 4.1-1.8 1-0.9 3.7-4.6 6.2-8.2 2.4-3.6 12.5-17.3 22.4-30.5 9.8-13.2 21.8-28.5 26.6-34 4.8-5.5 9.3-11.1 10-12.5 0.6-1.4 0.9-3.5 0.6-4.8-0.3-1.3-2.1-2.8-4.1-3.7-1.9-0.8-5-1.5-6.8-1.5-1.7 0-4.6 1-6.2 2.1zm36 49.6c-2.2 1.4-7.2 5.2-11 8.4-3.9 3.1-10.9 9.7-15.6 14.6-4.7 4.8-11 11.7-13.9 15.3-2.9 3.6-6.7 8.7-8.5 11.5-1.7 2.7-4.2 6.9-5.3 9.2-1.2 2.4-2.2 5.2-2.2 6.3 0 1.1 0.7 2.7 1.5 3.5 0.8 0.8 3.1 1.5 5 1.5 1.9 0 5.2-0.8 7.2-1.8 2-0.9 7-5.3 11.1-9.7 4.1-4.4 12.1-13.6 17.6-20.5 5.5-6.9 14.2-16.8 19.2-22 5-5.2 9.4-10.6 9.9-12 0.6-2 0.2-2.9-1.9-4.8-1.5-1.3-3.9-2.2-5.9-2.2-1.8 0-4.9 1.1-7.2 2.7zm-27-10.8c-2.2 1-6.4 4-9.4 6.7-3 2.7-9.1 9.4-13.6 14.9-4.4 5.5-11.8 14.8-16.3 20.7-4.5 6-8.7 11.9-9.2 13.3q-1 2.5 0 5c0.6 1.5 2.1 2.7 3.7 3.1 1.8 0.3 3.6 0 4.8-1 1.1-0.8 12-11.3 24.2-23.3 12.2-12 23.6-24.1 25.3-26.8 1.6-2.8 3-5.9 3.1-7 0-1.1-0.8-3-1.8-4.2-1-1.2-2.9-2.5-4.3-2.8-1.4-0.3-4.2 0.3-6.5 1.4z"/></svg>